<?xml version="1.0" encoding="utf-8" standalone="no"?>
<!DOCTYPE svg PUBLIC "-//W3C//DTD SVG 1.1//EN" "http://www.w3.org/Graphics/SVG/1.1/DTD/svg11.dtd">

<svg style="stroke-linejoin:round; stroke:black; stroke-width:0.5pt; text-anchor:middle; fill:none" xmlns="http://www.w3.org/2000/svg" height="720px" width="1280px" version="1.1" xmlns:xlink="http://www.w3.org/1999/xlink" font-family="Helvetica, Arial, FreeSans, Sans, sans, sans-serif" viewBox="0 0 1280 720">

<g>

<rect y="80.0" width="80.0" height="80.0" x="80.0" fill="black" />

<rect y="240.0" width="80.0" height="80.0" x="80.0" fill="black" />

<rect y="400.0" width="80.0" height="80.0" x="80.0" fill="black" />

<rect y="560.0" width="80.0" height="80.0" x="80.0" fill="black" />

<rect y="160.0" width="80.0" height="80.0" x="160.0" fill="black" />

<rect y="320.0" width="80.0" height="80.0" x="160.0" fill="black" />

<rect y="480.0" width="80.0" height="80.0" x="160.0" fill="black" />

<rect y="80.0" width="80.0" height="80.0" x="240.0" fill="black" />

<rect y="240.0" width="80.0" height="80.0" x="240.0" fill="black" />

<rect y="400.0" width="80.0" height="80.0" x="240.0" fill="black" />

<rect y="560.0" width="80.0" height="80.0" x="240.0" fill="black" />

<rect y="160.0" width="80.0" height="80.0" x="320.0" fill="black" />

<rect y="320.0" width="80.0" height="80.0" x="320.0" fill="black" />

<rect y="480.0" width="80.0" height="80.0" x="320.0" fill="black" />

<rect y="80.0" width="80.0" height="80.0" x="400.0" fill="black" />

<rect y="240.0" width="80.0" height="80.0" x="400.0" fill="black" />

<rect y="400.0" width="80.0" height="80.0" x="400.0" fill="black" />

<rect y="560.0" width="80.0" height="80.0" x="400.0" fill="black" />

<rect y="160.0" width="80.0" height="80.0" x="480.0" fill="black" />

<rect y="320.0" width="80.0" height="80.0" x="480.0" fill="black" />

<rect y="480.0" width="80.0" height="80.0" x="480.0" fill="black" />

<rect y="80.0" width="80.0" height="80.0" x="560.0" fill="black" />

<rect y="240.0" width="80.0" height="80.0" x="560.0" fill="black" />

<rect y="400.0" width="80.0" height="80.0" x="560.0" fill="black" />

<rect y="560.0" width="80.0" height="80.0" x="560.0" fill="black" />

<rect y="160.0" width="80.0" height="80.0" x="640.0" fill="black" />

<rect y="320.0" width="80.0" height="80.0" x="640.0" fill="black" />

<rect y="480.0" width="80.0" height="80.0" x="640.0" fill="black" />

<rect y="80.0" width="80.0" height="80.0" x="720.0" fill="black" />

<rect y="240.0" width="80.0" height="80.0" x="720.0" fill="black" />

<rect y="400.0" width="80.0" height="80.0" x="720.0" fill="black" />

<rect y="560.0" width="80.0" height="80.0" x="720.0" fill="black" />

<rect y="160.0" width="80.0" height="80.0" x="800.0" fill="black" />

<rect y="320.0" width="80.0" height="80.0" x="800.0" fill="black" />

<rect y="480.0" width="80.0" height="80.0" x="800.0" fill="black" />

<rect y="80.0" width="80.0" height="80.0" x="880.0" fill="black" />

<rect y="240.0" width="80.0" height="80.0" x="880.0" fill="black" />

<rect y="400.0" width="80.0" height="80.0" x="880.0" fill="black" />

<rect y="560.0" width="80.0" height="80.0" x="880.0" fill="black" />

<rect y="160.0" width="80.0" height="80.0" x="960.0" fill="black" />

<rect y="320.0" width="80.0" height="80.0" x="960.0" fill="black" />

<rect y="480.0" width="80.0" height="80.0" x="960.0" fill="black" />

<rect y="80.0" width="80.0" height="80.0" x="1040.0" fill="black" />

<rect y="240.0" width="80.0" height="80.0" x="1040.0" fill="black" />

<rect y="400.0" width="80.0" height="80.0" x="1040.0" fill="black" />

<rect y="560.0" width="80.0" height="80.0" x="1040.0" fill="black" />

<rect y="160.0" width="80.0" height="80.0" x="1120.0" fill="black" />

<rect y="320.0" width="80.0" height="80.0" x="1120.0" fill="black" />

<rect y="480.0" width="80.0" height="80.0" x="1120.0" fill="black" />

</g>

</svg>

